<svg xmlns="http://www.w3.org/2000/svg" viewBox="0 0 349.79 406.36"><defs><style>.cls-1{fill:none;stroke:#fff;stroke-miterlimit:10;stroke-width:14px;}.cls-2{fill:#fbb615;}.cls-3{fill:#fff;}</style></defs><title>engineColorsvg</title><g id="Layer_2" data-name="Layer 2"><g id="_--_Generator:_Adobe_Illustrator_23.0.1_SVG_Export_Plug-In_--_" data-name="&lt;!-- Generator: Adobe Illustrator 23.0.1, SVG Export Plug-In  --&gt;"><path class="cls-1" d="M181.65,369.16c-22.87,24-73.08,41.64-116.3,21.27C30.45,374,16.72,341.78,13.63,331.66,2.1,293.93,6.82,269.15,18.51,192.29,32.93,97.54,27,54.83,63.44,26.61,73.91,18.5,90.88,8.29,109.59,7.32c21.55-1.12,30.77-.12,62.89,17.26L297.59,97.15c15.23,8.24,33.45,21.57,40,39.63,11.56,32,2.19,55.33-10.9,72.84Z"/><path class="cls-2" d="M194.76,321.54a87.9,87.9,0,0,0,3.4-23.27L171.87,292c-.08-1.21-.22-2.43-.4-3.65s-.34-2.22-.56-3.33l23.47-13.44a87.09,87.09,0,0,0-9.7-21.39l-25.49,8.95a61.61,61.61,0,0,0-4.67-5.41l12.47-24A88.47,88.47,0,0,0,147.28,217l-16.6,21.29a61.94,61.94,0,0,0-6.92-2.05l-2.46-26.89a87.91,87.91,0,0,0-23.48,0l-2.45,26.89a63.22,63.22,0,0,0-6.91,2L71.85,217.05a87.48,87.48,0,0,0-19.72,12.73l12.49,24A58.41,58.41,0,0,0,60,259.17l-25.48-8.92a88,88,0,0,0-9.72,21.39l23.48,13.41a57.79,57.79,0,0,0-1,7h0L21,298.29a89.5,89.5,0,0,0,3.41,23.28l27-1.4a62.44,62.44,0,0,0,2.9,6.32L35.63,346A89.24,89.24,0,0,0,51.1,363.71l21.95-15.78a64.51,64.51,0,0,0,5.78,3.71l-5.21,26.49a87.4,87.4,0,0,0,22.61,6.64l9.94-25.14a62.81,62.81,0,0,0,6.86,0L123,384.74a88.26,88.26,0,0,0,22.61-6.58l-5.23-26.52a56.72,56.72,0,0,0,5.81-3.72l22,15.77a88.22,88.22,0,0,0,15.43-17.76l-18.7-19.46a59.45,59.45,0,0,0,2.91-6.33Zm-85.18-.3a24.63,24.63,0,1,1,24.63-24.62A24.62,24.62,0,0,1,109.58,321.24Z"/><path class="cls-3" d="M329.1,181.43a57.21,57.21,0,0,0,2.23-15.3L314.06,162c-.05-.8-.14-1.6-.26-2.4s-.23-1.46-.37-2.19l15.42-8.83a57.22,57.22,0,0,0-6.37-14.06l-16.75,5.88a40.08,40.08,0,0,0-3.07-3.55l8.19-15.76a58.19,58.19,0,0,0-13-8.36l-10.91,14a41,41,0,0,0-4.55-1.34l-1.62-17.67a57.77,57.77,0,0,0-15.43,0l-1.6,17.68a41.92,41.92,0,0,0-4.55,1.33l-10.91-14a57.64,57.64,0,0,0-13,8.37l8.21,15.75a39.87,39.87,0,0,0-3.06,3.56l-16.74-5.86a57.78,57.78,0,0,0-6.39,14l15.43,8.82a38.86,38.86,0,0,0-.64,4.6h0l-17.24,4.1a58.08,58.08,0,0,0,.58,7.51,59.28,59.28,0,0,0,1.65,7.78l17.75-.91a40,40,0,0,0,1.91,4.15l-12.3,12.79a58.5,58.5,0,0,0,10.17,11.67l14.43-10.37a41.63,41.63,0,0,0,3.8,2.44l-3.43,17.41A57.18,57.18,0,0,0,264.35,223l6.53-16.52a39.93,39.93,0,0,0,4.51,0L281.92,223a58.09,58.09,0,0,0,14.86-4.32l-3.44-17.43a37,37,0,0,0,3.82-2.45l14.43,10.37a58.1,58.1,0,0,0,10.14-11.67l-12.29-12.79a40.2,40.2,0,0,0,1.91-4.16Zm-56,0a16.18,16.18,0,1,1,16.18-16.18A16.18,16.18,0,0,1,273.13,181.4Z"/><path class="cls-3" d="M186.88,110.85A71,71,0,0,0,189.63,92L168.36,87c-.06-1-.17-2-.32-2.95s-.28-1.8-.46-2.7l19-10.87a69.91,69.91,0,0,0-7.85-17.3l-20.61,7.23A52.38,52.38,0,0,0,154.33,56l10.09-19.4a71.9,71.9,0,0,0-15.95-10.29L135,43.54a50.16,50.16,0,0,0-5.6-1.66l-2-21.75a71,71,0,0,0-19,0l-2,21.76a49.47,49.47,0,0,0-5.6,1.64L87.45,26.32a70.64,70.64,0,0,0-16,10.31L81.6,56a50.36,50.36,0,0,0-3.76,4.37L57.23,53.18a71.43,71.43,0,0,0-7.87,17.3l19,10.85A48.47,48.47,0,0,0,67.57,87h0L46.33,92.05a70.79,70.79,0,0,0,.72,9.24,72.31,72.31,0,0,0,2,9.58l21.85-1.13a49.55,49.55,0,0,0,2.35,5.12L58.14,130.6A72.59,72.59,0,0,0,70.66,145L88.42,132.2a49.59,49.59,0,0,0,4.68,3l-4.22,21.43A70.1,70.1,0,0,0,107.17,162l8-20.33a48.94,48.94,0,0,0,5.55,0l8,20.32a70.93,70.93,0,0,0,18.29-5.33l-4.23-21.45a42.61,42.61,0,0,0,4.7-3L165.32,145a71.25,71.25,0,0,0,12.48-14.38l-15.13-15.74a48.51,48.51,0,0,0,2.36-5.12ZM118,110.47A19.92,19.92,0,1,1,137.9,90.55,19.93,19.93,0,0,1,118,110.47Z"/></g></g></svg>