<?xml version="1.0" encoding="UTF-8" standalone="no"?>
<svg
   xmlns:dc="http://purl.org/dc/elements/1.1/"
   xmlns:cc="http://creativecommons.org/ns#"
   xmlns:rdf="http://www.w3.org/1999/02/22-rdf-syntax-ns#"
   xmlns:svg="http://www.w3.org/2000/svg"
   xmlns="http://www.w3.org/2000/svg"
   xmlns:sodipodi="http://sodipodi.sourceforge.net/DTD/sodipodi-0.dtd"
   xmlns:inkscape="http://www.inkscape.org/namespaces/inkscape"
   width="80.4233mm"
   height="77.2487mm"
   viewBox="0 0 228 219"
   version="1.1"
   id="svg995"
   sodipodi:docname="liu_fill.svg"
   inkscape:version="1.0.1 (c497b03c, 2020-09-10)">
  <metadata
     id="metadata1001">
    <rdf:RDF>
      <cc:Work
         rdf:about="">
        <dc:format>image/svg+xml</dc:format>
        <dc:type
           rdf:resource="http://purl.org/dc/dcmitype/StillImage" />
      </cc:Work>
    </rdf:RDF>
  </metadata>
  <defs
     id="defs999" />
  <sodipodi:namedview
     pagecolor="#ffffff"
     bordercolor="#666666"
     borderopacity="1"
     objecttolerance="10"
     gridtolerance="10"
     guidetolerance="10"
     inkscape:pageopacity="0"
     inkscape:pageshadow="2"
     inkscape:window-width="1724"
     inkscape:window-height="1035"
     id="namedview997"
     showgrid="false"
     inkscape:zoom="2.5174371"
     inkscape:cx="75.514385"
     inkscape:cy="143.2012"
     inkscape:window-x="1247"
     inkscape:window-y="289"
     inkscape:window-maximized="0"
     inkscape:current-layer="svg995" />
  <path
     id="Selection"
     fill="white"
     stroke-width="1"
     d="M 74.00,60.00            C 78.76,62.63 84.43,65.15 90.00,64.67              90.00,64.67 109.00,62.00 109.00,62.00              109.00,62.00 101.41,74.77 98.66,79.00              93.13,87.49 84.32,96.21 83.57,97.44              81.56,100.77 79.75,102.25 83.50,107.50              90.50,115.50 96.86,113.23 104.00,110.69              104.00,110.69 143.00,101.19 143.00,101.19              143.00,101.19 160.96,97.78 160.96,97.78              167.57,98.25 174.25,109.75 180.44,108.40              186.01,103.76 183.64,94.41 179.70,89.58              173.37,81.81 154.50,67.00 145.75,72.00              141.50,75.25 159.00,90.00 159.00,90.00              159.00,90.00 118.00,97.25 118.00,97.25              115.19,97.52 105.65,99.54 103.89,97.25              102.45,95.80 102.75,95.25 103.89,89.00              107.50,83.75 119.77,61.41 123.67,59.35              125.89,58.18 133.17,58.05 136.00,57.72              136.00,57.72 165.00,55.00 165.00,55.00              165.00,55.00 181.00,54.00 181.00,54.00              182.75,53.81 185.64,53.68 186.28,51.61              187.74,46.93 176.30,43.23 173.00,42.84              173.00,42.84 127.00,49.00 127.00,49.00              131.72,44.11 133.19,39.70 136.70,34.28              138.99,30.74 142.43,26.45 142.45,22.00              142.49,15.26 130.78,6.52 126.45,9.05              123.90,10.55 122.91,18.21 122.39,21.00              121.08,28.04 117.30,47.23 110.89,50.83              108.35,52.25 90.20,54.17 86.00,54.72              80.55,55.43 76.96,54.69 74.00,60.00 Z            M 37.00,33.00            C 37.29,35.08 40.25,47.50 53.95,57.25              57.16,59.76 61.83,62.42 65.57,59.26              69.86,55.64 68.09,46.45 64.89,42.68              59.01,35.73 45.62,33.63 37.00,33.00 Z            M 10.00,78.00            C 11.95,85.89 23.13,97.33 29.32,102.75              32.40,105.44 37.80,108.41 41.57,105.26              45.96,101.60 44.02,91.85 40.72,88.10              34.71,81.27 18.83,78.03 10.00,78.00 Z            M 58.00,111.75            C 53.99,114.33 51.16,126.35 48.84,130.96              45.89,136.81 35.87,152.13 31.70,157.00              28.08,161.23 17.23,170.15 15.93,174.00              14.51,178.20 12.75,189.25 19.00,194.25              21.25,200.50 27.13,202.11 31.30,196.85              33.55,194.02 38.34,177.66 40.05,173.00              40.05,173.00 58.19,130.00 58.19,130.00              60.55,123.78 69.25,108.75 63.00,109.00              63.00,109.00 58.00,111.75 58.00,111.75 Z            M 209.83,189.48            C 203.63,188.89 181.82,197.56 175.16,184.96              172.71,179.91 175.64,146.82 176.87,138.00              177.74,131.78 180.25,123.00 174.25,118.25              170.00,114.50 162.66,114.86 160.11,119.31              158.99,121.27 160.96,130.66 161.00,134.00              161.00,134.00 161.00,163.00 161.00,163.00              160.98,175.79 155.92,190.21 168.17,199.40              177.49,206.40 203.23,208.08 213.94,203.26              219.68,200.60 209.83,189.48 209.83,189.48 Z            M 120.25,126.25            C 120.25,126.25 123.01,156.43 123.00,164.00              123.00,164.00 121.19,187.00 121.19,187.00              121.55,191.16 124.37,203.00 130.78,198.38              134.77,195.51 134.98,188.45 134.93,184.00              134.93,184.00 134.93,145.42 134.93,145.42              135.07,140.99 138.50,132.56 137.22,129.10              134.93,122.90 122.50,121.00 120.25,126.25 Z            M 60.00,203.00            C 86.08,197.05 97.11,174.25 100.42,150.00              100.42,150.00 102.77,135.02 102.77,135.02              102.28,130.22 87.92,124.87 84.37,127.11              82.43,128.33 83.09,130.27 83.73,132.00              86.67,139.98 87.80,140.89 86.72,150.00              85.03,164.19 83.38,173.00 74.96,185.00              74.96,185.00 60.00,203.00 60.00,203.00 Z"
     style=""/>
</svg>
