<?xml version="1.0" encoding="UTF-8" standalone="no"?>
<svg
   width="80.4233mm"
   height="77.2487mm"
   viewBox="0 0 228 219"
   version="1.1"
   id="svg995"
   sodipodi:docname="liu_engine_black.svg"
   inkscape:version="1.1.2 (0a00cf5339, 2022-02-04)"
   inkscape:export-filename="/home/awicenec/WORK/DAliuGE/Images/liu_engine_black.png"
   inkscape:export-xdpi="151"
   inkscape:export-ydpi="151"
   xmlns:inkscape="http://www.inkscape.org/namespaces/inkscape"
   xmlns:sodipodi="http://sodipodi.sourceforge.net/DTD/sodipodi-0.dtd"
   xmlns="http://www.w3.org/2000/svg"
   xmlns:svg="http://www.w3.org/2000/svg"
   xmlns:rdf="http://www.w3.org/1999/02/22-rdf-syntax-ns#"
   xmlns:cc="http://creativecommons.org/ns#"
   xmlns:dc="http://purl.org/dc/elements/1.1/">
  <metadata
     id="metadata1001">
    <rdf:RDF>
      <cc:Work
         rdf:about="">
        <dc:format>image/svg+xml</dc:format>
        <dc:type
           rdf:resource="http://purl.org/dc/dcmitype/StillImage" />
      </cc:Work>
    </rdf:RDF>
  </metadata>
  <defs
     id="defs999" />
  <sodipodi:namedview
     pagecolor="#ffffff"
     bordercolor="#666666"
     borderopacity="1"
     objecttolerance="10"
     gridtolerance="10"
     guidetolerance="10"
     inkscape:pageopacity="0"
     inkscape:pageshadow="2"
     inkscape:window-width="3840"
     inkscape:window-height="2083"
     id="namedview997"
     showgrid="false"
     inkscape:zoom="2.5174371"
     inkscape:cx="36.743718"
     inkscape:cy="143.20119"
     inkscape:window-x="0"
     inkscape:window-y="40"
     inkscape:window-maximized="1"
     inkscape:current-layer="svg995"
     inkscape:pagecheckerboard="0"
     inkscape:document-units="mm" />
  <path
     id="Selection"
     fill="white"
     stroke-width="0.814228"
     d="m 84.577278,51.202734 c 3.724405,2.228427 8.160828,4.363649 12.519007,3.95694 0,0 14.866315,-2.262319 14.866315,-2.262319 0,0 -5.9387,10.820153 -8.0904,14.404275 -4.326885,7.193665 -11.220163,14.582211 -11.806991,15.624403 -1.5727,2.821543 -2.988913,4.075562 -0.05477,8.523941 5.477066,6.778483 10.453371,4.855088 16.039981,2.70292 0,0 30.51507,-8.049448 30.51507,-8.049448 0,0 14.05259,-2.889328 14.05259,-2.889328 5.17191,0.398236 10.3986,10.142305 15.24189,8.998436 4.35818,-3.93152 2.5038,-11.853872 -0.57901,-15.94638 -4.95283,-6.583602 -19.71743,-19.132267 -26.56376,-14.895716 -3.32537,2.753759 10.3673,15.251586 10.3673,15.251586 0,0 -32.07995,6.143 -32.07995,6.143 -2.19865,0.228773 -9.66311,1.94034 -11.0402,0 -1.12671,-1.2286 -0.89198,-1.694621 0,-6.99031 2.8246,-4.44838 12.42511,-23.377292 15.47662,-25.122751 1.73701,-0.991353 7.43316,-1.101504 9.64746,-1.381116 0,0 22.6907,-2.304684 22.6907,-2.304684 0,0 12.519,-0.84731 12.519,-0.84731 1.36927,-0.160989 3.63051,-0.27114 4.13127,-2.025072 1.14236,-3.965412 -7.80873,-7.100461 -10.39077,-7.430912 0,0 -35.99214,5.219432 -35.99214,5.219432 3.6931,-4.143347 4.84329,-7.879986 7.58964,-12.472408 1.79179,-2.999478 4.48337,-6.63444 4.49902,-10.40497 0.0313,-5.710872 -9.13105,-13.1163635 -12.51901,-10.9726684 -1.99521,1.2709651 -2.76982,7.7613614 -3.17669,10.1253574 -1.02499,5.965065 -3.98261,22.22495 -8.99804,25.275267 -1.98739,1.203181 -16.188637,2.830016 -19.474876,3.296037 -4.264287,0.60159 -7.073239,-0.02542 -9.389256,4.473798 z M 55.627076,28.325356 c 0.226907,1.762405 2.542923,12.286 13.262322,20.547275 2.511626,2.126749 6.165611,4.380594 9.091929,1.703094 C 81.337985,47.508461 79.95307,39.72168 77.449269,36.52732 72.848534,30.638513 62.37169,28.859161 55.627076,28.325356 Z M 34.501252,66.45432 c 1.525754,6.685278 10.27341,16.378508 15.1167,20.97093 2.409909,2.279265 6.635074,4.795777 9.584865,2.126749 C 62.637719,86.450844 61.11979,78.189568 58.537745,75.012154 53.835293,69.225025 41.410179,66.479739 34.501252,66.45432 Z m 37.55702,28.596723 c -3.137576,2.186061 -5.351876,12.370727 -7.167132,16.276837 -2.308191,4.95676 -10.148219,17.93755 -13.410985,22.06396 -2.832426,3.58412 -11.321877,11.14213 -12.339046,14.40427 -1.111062,3.5587 -2.488153,12.92148 2.402084,17.15804 1.760485,5.29568 6.36122,6.65985 9.623986,2.203 1.760486,-2.39789 5.508363,-16.25988 6.846332,-20.20835 0,0 14.193424,-36.43434 14.193424,-36.43434 1.846553,-5.27027 8.653763,-18.005348 3.763526,-17.79352 0,0 -3.912189,2.330103 -3.912189,2.330103 z M 190.85582,160.91247 c -4.85112,-0.49991 -21.91609,6.84627 -27.12713,-3.82984 -1.91697,-4.27891 0.37558,-32.31641 1.33797,-39.78969 0.68072,-5.27027 2.64464,-12.70965 -2.04998,-16.73438 -3.32536,-3.177413 -9.06846,-2.872382 -11.06368,0.89815 -0.87633,1.66073 0.66508,9.61697 0.69637,12.44699 0,0 0,24.572 0,24.572 -0.0156,10.8371 -3.97478,23.05531 5.61008,30.84209 7.29233,5.93118 27.43228,7.35466 35.81219,3.27062 4.49119,-2.25384 -3.21582,-11.67594 -3.21582,-11.67594 z m -70.09079,-53.57543 c 0,0 2.15953,25.57183 2.15171,31.98597 0,0 -1.41622,19.48814 -1.41622,19.48814 0.28168,3.52481 2.48816,13.55696 7.50358,9.64239 3.12193,-2.43178 3.28624,-8.41379 3.24712,-12.18433 0,0 0,-32.68923 0,-32.68923 0.10954,-3.75358 2.7933,-10.89641 1.79178,-13.8281 -1.79178,-5.25333 -11.51748,-6.86322 -13.27797,-2.41484 z m -47.141883,65.03107 c 20.405981,-5.0415 29.036273,-24.36017 31.626143,-44.90745 0,0 1.83873,-12.6927 1.83873,-12.6927 -0.3834,-4.06709 -11.619206,-8.6002 -14.396861,-6.70223 -1.517929,1.03372 -1.00152,2.6775 -0.50076,4.14335 2.300367,6.76153 3.184522,7.53259 2.339489,15.25158 -1.32232,12.02334 -2.613342,19.48814 -9.201469,29.65586 0,0 -11.705272,15.25159 -11.705272,15.25159 z"
     style="fill:#010101;fill-opacity:1" />
  <text
     xml:space="preserve"
     style="font-style:normal;font-weight:normal;font-size:30.0037px;line-height:1.25;font-family:sans-serif;fill:#000000;fill-opacity:1;stroke:none;stroke-width:0.750094"
     x="42.821304"
     y="194.25783"
     id="text28236"><tspan
       sodipodi:role="line"
       id="tspan28234"
       style="stroke-width:0.750094"
       x="42.821304"
       y="194.25783" /></text>
  <text
     xml:space="preserve"
     style="font-style:normal;font-weight:normal;font-size:30.9097px;line-height:1.25;font-family:sans-serif;fill:#000000;fill-opacity:1;stroke:none;stroke-width:0.772743"
     x="23.008654"
     y="202.50586"
     id="text46576"
     transform="scale(1.0301947,0.9706903)"><tspan
       sodipodi:role="line"
       style="font-style:normal;font-variant:normal;font-weight:600;font-stretch:normal;font-size:20.6065px;font-family:'URW Bookman';-inkscape-font-specification:'URW Bookman, Semi-Bold';font-variant-ligatures:normal;font-variant-caps:normal;font-variant-numeric:normal;font-variant-east-asian:normal;stroke-width:0.772743"
       x="23.008654"
       y="202.50586"
       id="tspan48512">DALiuGE Engine</tspan></text>
</svg>
