<?xml version="1.0" encoding="UTF-8" standalone="no"?>
<svg
   width="28.008453mm"
   height="25.484484mm"
   viewBox="0 0 79.403969 72.24851"
   version="1.1"
   id="svg995"
   sodipodi:docname="liu_deploy_black.svg"
   inkscape:version="1.1.2 (0a00cf5339, 2022-02-04)"
   inkscape:export-filename="/home/awicenec/WORK/DAliuGE/Images/liu_deploy_black.png"
   inkscape:export-xdpi="150"
   inkscape:export-ydpi="150"
   xmlns:inkscape="http://www.inkscape.org/namespaces/inkscape"
   xmlns:sodipodi="http://sodipodi.sourceforge.net/DTD/sodipodi-0.dtd"
   xmlns="http://www.w3.org/2000/svg"
   xmlns:svg="http://www.w3.org/2000/svg"
   xmlns:rdf="http://www.w3.org/1999/02/22-rdf-syntax-ns#"
   xmlns:cc="http://creativecommons.org/ns#"
   xmlns:dc="http://purl.org/dc/elements/1.1/">
  <metadata
     id="metadata1001">
    <rdf:RDF>
      <cc:Work
         rdf:about="">
        <dc:format>image/svg+xml</dc:format>
        <dc:type
           rdf:resource="http://purl.org/dc/dcmitype/StillImage" />
      </cc:Work>
    </rdf:RDF>
  </metadata>
  <defs
     id="defs999" />
  <sodipodi:namedview
     pagecolor="#ffffff"
     bordercolor="#666666"
     borderopacity="1"
     objecttolerance="10"
     gridtolerance="10"
     guidetolerance="10"
     inkscape:pageopacity="0"
     inkscape:pageshadow="2"
     inkscape:window-width="1908"
     inkscape:window-height="1011"
     id="namedview997"
     showgrid="false"
     inkscape:zoom="3.3224977"
     inkscape:cx="-46.802139"
     inkscape:cy="13.393538"
     inkscape:window-x="1924"
     inkscape:window-y="1104"
     inkscape:window-maximized="0"
     inkscape:current-layer="svg995"
     inkscape:pagecheckerboard="0"
     inkscape:document-units="mm"
     width="20mm" />
  <path
     id="Selection"
     fill="white"
     stroke-width="0.332143"
     d="m 24.593593,16.529969 c 1.632788,0.845846 3.577713,1.656314 5.488326,1.501939 0,0 6.517358,-0.85871 6.517358,-0.85871 0,0 -2.603492,4.107013 -3.546791,5.467441 -1.896922,2.730505 -4.91891,5.53498 -5.176187,5.930567 -0.689463,1.070977 -1.310324,1.546965 -0.02512,3.235439 2.401151,2.572914 4.582756,1.84285 7.031912,1.025949 0,0 13.377777,-3.055336 13.377777,-3.055336 0,0 6.160606,-1.096702 6.160606,-1.096702 2.267364,0.15116 4.558742,3.849721 6.682019,3.415543 1.910637,-1.492292 1.097685,-4.499383 -0.253811,-6.052779 -2.171331,-2.498945 -8.644101,-7.262051 -11.645515,-5.65398 -1.457853,1.045246 4.545001,5.789056 4.545001,5.789056 0,0 -14.063799,2.331703 -14.063799,2.331703 -0.963897,0.08684 -4.236279,0.736497 -4.840008,0 -0.493956,-0.466341 -0.39104,-0.64323 0,-2.653318 1.238305,-1.688474 5.447154,-8.873335 6.784909,-9.535861 0.761507,-0.376288 3.258691,-0.418098 4.229446,-0.524231 0,0 9.947593,-0.874791 9.947593,-0.874791 0,0 5.4883,-0.321614 5.4883,-0.321614 0.600288,-0.06111 1.591616,-0.102917 1.811138,-0.768658 0.500813,-1.505154 -3.423327,-2.695127 -4.555301,-2.820557 0,0 -15.778878,1.981144 -15.778878,1.981144 1.619021,-1.572693 2.123276,-2.991012 3.327268,-4.7341612 0.785496,-1.1385142 1.965474,-2.5182397 1.972357,-3.9494226 0.01507,-2.1676799 -4.003042,-4.97858792 -5.4883,-4.16490393 -0.874722,0.48242121 -1.214317,2.94598563 -1.392667,3.84328953 -0.449343,2.2641643 -1.745977,8.4359412 -3.944739,9.5937522 -0.871255,0.456692 -7.097073,1.074191 -8.537743,1.251079 -1.869441,0.228346 -3.100889,-0.0096 -4.116257,1.698123 z M 11.901889,7.8463854 c 0.09947,0.6689576 1.114817,4.6634066 5.814179,7.7991446 1.101076,0.807252 2.702991,1.662746 3.985884,0.646445 1.471569,-1.164244 0.864423,-4.119878 -0.233111,-5.332364 C 19.451896,8.7243921 14.858866,8.049002 11.902039,7.8463854 Z M 2.6403681,22.319026 c 0.668865,2.537537 4.5038549,6.216801 6.6271319,7.959951 1.056513,0.865143 2.908797,1.820337 4.20199,0.807251 1.505832,-1.177109 0.840383,-4.312844 -0.291565,-5.518899 C 11.116367,23.370703 5.6692135,22.328674 2.6403681,22.319026 Z m 16.4649249,10.85448 c -1.37551,0.829765 -2.34624,4.695564 -3.14206,6.17821 -1.011901,1.881443 -4.448968,6.808572 -5.87934,8.374835 -1.241747,1.360427 -4.9635221,4.229227 -5.4094488,5.467443 -0.4870479,1.350779 -1.0907772,4.904613 1.0530975,6.512685 0.7717813,2.010089 2.7887253,2.527888 4.2191223,0.836195 0.771806,-0.910166 2.414867,-6.171773 3.001439,-7.670497 0,0 6.222376,-13.829408 6.222376,-13.829408 0.809536,-2.000441 3.793794,-6.834307 1.649919,-6.753901 0,0 -1.715105,0.884438 -1.715105,0.884438 z m 52.080661,24.999073 c -2.126717,-0.189757 -9.607972,2.598645 -11.892493,-1.453694 -0.840383,-1.624152 0.164535,-12.266367 0.586573,-15.103007 0.298423,-2.000438 1.159404,-4.824211 -0.898712,-6.351879 -1.457827,-1.206055 -3.97561,-1.090272 -4.850307,0.340909 -0.384182,0.630366 0.291566,3.650323 0.305306,4.724515 0,0 0,9.326813 0,9.326813 -0.0075,4.113447 -1.742561,8.751123 2.459455,11.706759 3.196947,2.251301 12.026256,2.791611 15.700002,1.241428 1.968916,-0.855492 -1.409824,-4.431844 -1.409824,-4.431844 z M 40.458281,37.836911 c 0,0 0.94674,9.706321 0.943299,12.140939 0,0 -0.620861,7.39713 -0.620861,7.39713 0.123589,1.337911 1.090777,5.145824 3.289539,3.65997 1.368652,-0.923034 1.440671,-3.193629 1.423539,-4.624819 0,0 0,-12.407875 0,-12.407875 0.04798,-1.424746 1.224565,-4.135958 0.785496,-5.248744 -0.785496,-1.99401 -5.049231,-2.605077 -5.821012,-0.916601 z M 19.79134,62.520804 c 8.945941,-1.913604 12.72946,-9.24641 13.86485,-17.045552 0,0 0.806095,-4.817781 0.806095,-4.817781 -0.168052,-1.543748 -5.093844,-3.264385 -6.311577,-2.543971 -0.665449,0.392369 -0.439044,1.016299 -0.219296,1.572696 1.008485,2.566479 1.396109,2.859151 1.025617,5.789056 -0.57969,4.563707 -1.145664,7.397125 -4.033889,11.256494 0,0 -5.131574,5.789058 -5.131574,5.789058 z"
     style="fill:#010101;fill-opacity:1" />
  <text
     xml:space="preserve"
     style="font-style:normal;font-weight:normal;font-size:30.0037px;line-height:1.25;font-family:sans-serif;fill:#000000;fill-opacity:1;stroke:none;stroke-width:0.750094"
     x="-148.58911"
     y="186.6042"
     id="text28236"><tspan
       sodipodi:role="line"
       id="tspan28234"
       style="stroke-width:0.750094"
       x="-148.58911"
       y="186.6042" /></text>
  <text
     xml:space="preserve"
     style="font-style:normal;font-weight:normal;font-size:12.6089px;line-height:1.25;font-family:sans-serif;fill:#000000;fill-opacity:1;stroke:none;stroke-width:0.315221"
     x="-0.16811819"
     y="78.132416"
     id="text46576"
     transform="scale(1.1071525,0.90321794)"><tspan
       style="font-style:normal;font-variant:normal;font-weight:600;font-stretch:normal;font-size:8.40591px;font-family:'URW Bookman';-inkscape-font-specification:'URW Bookman, Semi-Bold';font-variant-ligatures:normal;font-variant-caps:normal;font-variant-numeric:normal;font-variant-east-asian:normal;stroke-width:0.315221"
       x="-0.16811819"
       y="78.132416"
       id="tspan48512"
       sodipodi:role="line">DALiuGE Deploy</tspan></text>
</svg>
